inDegrees=no
num_controls=7
num_derivatives=13
num_iterations=49
num_multipliers=7
num_parameters=0
num_slacks=7
num_states=26
objective=0.471675
objective_accelerations=0.059567
objective_balance=0.000938
objective_effort=0.016477
objective_height=0.385596
objective_ligament=0.009097
solver_duration=761.659428
status=Solve_Succeeded
success=true
DataType=double
version=3
OpenSimVersion=4.5
endheader
time	/jointset/ground_pelvis/pelvis_tilt/value	/jointset/ground_pelvis/pelvis_tx/value	/jointset/ground_pelvis/pelvis_ty/value	/jointset/hip_l/hip_flexion_l/value	/jointset/hip_l/hip_adduction_l/value	/jointset/hip_l/hip_rotation_l/value	/jointset/back/lumbar_extension/value	/jointset/patellofemoral_l/patellar_flexion_l/value	/jointset/knee_l/knee_flexion_l/value	/jointset/knee_l/knee_adduction_l/value	/jointset/knee_l/knee_rotation_l/value	/jointset/ankle_l/ankle_angle_l/value	/jointset/subtalar_l/subtalar_angle_l/value	/jointset/ground_pelvis/pelvis_tilt/speed	/jointset/ground_pelvis/pelvis_tx/speed	/jointset/ground_pelvis/pelvis_ty/speed	/jointset/hip_l/hip_flexion_l/speed	/jointset/hip_l/hip_adduction_l/speed	/jointset/hip_l/hip_rotation_l/speed	/jointset/back/lumbar_extension/speed	/jointset/patellofemoral_l/patellar_flexion_l/speed	/jointset/knee_l/knee_flexion_l/speed	/jointset/knee_l/knee_adduction_l/speed	/jointset/knee_l/knee_rotation_l/speed	/jointset/ankle_l/ankle_angle_l/speed	/jointset/subtalar_l/subtalar_angle_l/speed	/forceset/tau_hip_flexion_l	/forceset/tau_hip_adduction_l	/forceset/tau_hip_rotation_l	/forceset/tau_knee_flexion_l	/forceset/tau_ankle_angle_l	/forceset/tau_subtalar_angle_l	/forceset/tau_lumbar_extension	lambda_cid13_p0	lambda_cid13_p1	lambda_cid13_p2	lambda_cid13_p3	lambda_cid13_p4	lambda_cid13_p5	lambda_cid14_p0	/jointset/ground_pelvis/pelvis_tilt/accel	/jointset/ground_pelvis/pelvis_tx/accel	/jointset/ground_pelvis/pelvis_ty/accel	/jointset/hip_l/hip_flexion_l/accel	/jointset/hip_l/hip_adduction_l/accel	/jointset/hip_l/hip_rotation_l/accel	/jointset/back/lumbar_extension/accel	/jointset/patellofemoral_l/patellar_flexion_l/accel	/jointset/knee_l/knee_flexion_l/accel	/jointset/knee_l/knee_adduction_l/accel	/jointset/knee_l/knee_rotation_l/accel	/jointset/ankle_l/ankle_angle_l/accel	/jointset/subtalar_l/subtalar_angle_l/accel	gamma_cid13_p0	gamma_cid13_p1	gamma_cid13_p2	gamma_cid13_p3	gamma_cid13_p4	gamma_cid13_p5	gamma_cid14_p0
1	-0.5743251427747469	-0.05371671300821407	0.6297153678200516	1.749427966286554	-0.3407606692028485	0.1027813082664694	-0.4362204432245231	1.288257297943813	1.288257297943804	0.01338281891717925	-0.1744042437811606	0.2659337528412942	0.1714989440320498	-0.1408051540070749	0.003737444993647465	0.02852636132823152	0.02300884446716371	-0.002570920769343199	-0.05836790745122272	-0.001797991962548694	-0.1497179812383555	-0.1497179812383759	0.001327208921962326	-0.0004875822036655059	-0.04316628769788428	-0.02086903012067968	-0.2826954475194976	0.0607916385034221	-0.00645083225696952	-0.2190246765931941	0.02627625804547102	-0.01977605170081364	0.2307584310350158	-24.55567134605075	18.33164268236917	-9.421228413364304	-0.319760006425172	-535.166668335192	-32.92539116559924	-0.0253750946483633	2.057370369833056	0.4525393295068922	1.752199909481396	-6.691696487721988	-0.2699430805572506	-1.547855085214628	-0.03304436645643503	-4.719177529222192	-4.719177529222172	-0.4611367504526978	-0.02913232532157759	-0.4405062919004605	-0.5139545203542418	-1.049344344733679e-08	-7.309151993271248e-08	1.670024371227933e-08	3.419802253468424e-09	-9.711441975733957e-09	-1.820291521136939e-08	-1.17289204786925e-08
1.01	-0.575631058965864	-0.05365669525326405	0.6300880479711342	1.749324485029798	-0.340799092767567	0.1021208750941538	-0.4362389703281853	1.286524440769638	1.286524440769663	0.01337361249094859	-0.1744091394249525	0.2654801372470891	0.1712656153458697	-0.1203596377304245	0.008275707678668007	0.0460032472740452	-0.04371431761123012	-0.005106087813674103	-0.073714827082232	-0.00190087117207779	-0.1968479437119028	-0.1968479437118989	-0.003163972545125661	-0.0004904887174312802	-0.04755919405018388	-0.02578590275224663	-0.2831312686631455	0.06086495830235406	-0.006483812301827045	-0.21815377517198	0.0259644848599963	-0.01967563237754645	0.2310166843072503	-24.6247068143664	18.2642990298157	-9.369577972706219	-0.4525196163739603	-535.0728240893677	-32.88708318542992	-0.02538646771751019	2.040908196538868	0.4559098648515363	1.744466794606931	-6.664010662020756	-0.2441451680101507	-1.527541067067824	0.002073943197707055	-4.709076113582345	-4.709076113578642	-0.4424464890293669	0.01429110846888119	-0.4390429416015174	-0.4789204578709794	-1.18794749640299e-08	-9.026653630803701e-08	1.65737057300252e-08	-5.863142526117594e-10	-1.445413788614085e-08	-1.520093056906595e-08	-1.501825201862142e-08
1.02	-0.5767319668062317	-0.05355100684609329	0.6306353037531697	1.748553495233427	-0.3408626363330519	0.1013070865925012	-0.4362583294956159	1.284320449869296	1.28432044986936	0.01331962672126246	-0.1744140319492911	0.2649825205624211	0.1709834445687121	-0.09980348385544838	0.01287157543779672	0.06344148751892002	-0.1104928634545132	-0.007594920923570978	-0.08903897331420241	-0.001964404725628384	-0.2439447264719105	-0.2439447264718825	-0.007628659779918247	-0.0004869583162891426	-0.0519665057907618	-0.03063744831634492	-0.2835670898068076	0.06093827810125704	-0.006516792346304222	-0.2172828737507562	0.02565271167451353	-0.01957521305432678	0.2312749375794631	-24.6984889958616	18.19707062263908	-9.317128079999653	-0.5904621341742021	-535.0896173377683	-32.84386905488972	-0.0253947878458938	2.079497889498197	0.4640603443284758	1.744470769293629	-6.702773240699824	-0.2606762936702987	-1.54330040540677	-0.02517523525987102	-4.712541586514344	-4.712541586514356	-0.4558379039935082	-0.02784494233971754	-0.4433873695561952	-0.5008891068603518	-1.297849685201314e-08	-1.073291966519404e-07	1.699539874587233e-08	-5.172396198504063e-09	-1.889326191916819e-08	-1.204388545714411e-08	-1.83877139406803e-08
1.03	-0.5776267281930092	-0.05339905881808097	0.6313566686845729	1.747114580294122	-0.3409507764445401	0.100340280835928	-0.4362779736388582	1.281645769601921	1.281645769601897	0.01322112026135949	-0.1744187963803433	0.2644407122894126	0.1706531451444553	-0.07912662535806625	0.01752900199780189	0.08081720164747108	-0.1772865988734215	-0.01001955462374672	-0.1043101244053541	-0.001943142832469631	-0.2909747296567752	-0.2909747296567964	-0.01206653027428939	-0.0004599656722962224	-0.05640187958433381	-0.03540559263228361	-0.2838832182209401	0.06107461338900443	-0.006548853630960028	-0.2161170695119956	0.02511783895114065	-0.0194137745746923	0.2314813336928265	-24.82258481023707	18.0968406686793	-9.241928721773897	-0.6858240293343189	-534.8475380048286	-32.80714315992024	-0.02541074932063987	2.065102910967084	0.4682276059889714	1.731972474782878	-6.667147426027195	-0.2313193784120151	-1.517236686551728	0.01896906778522588	-4.695735710636666	-4.695735710643941	-0.4368692874889189	0.01886811865837219	-0.4446295228698892	-0.46223261067642	-1.407459007031567e-08	-1.243907105057273e-07	1.742268595557764e-08	-9.764396159088331e-09	-2.332928827997737e-08	-8.885258095532283e-09	-2.175799351969969e-08
